<?xml version="1.0" encoding="utf-8"?>
<!-- Generator: Adobe Illustrator 27.2.0, SVG Export Plug-In . SVG Version: 6.00 Build 0)  -->
<svg version="1.1" id="Layer_1" xmlns="http://www.w3.org/2000/svg" xmlns:xlink="http://www.w3.org/1999/xlink" x="0px" y="0px"
	 viewBox="0 0 800 800" style="enable-background:new 0 0 800 800;" xml:space="preserve">
<style type="text/css">
	.st0{fill:#FFFFFF;}
</style>
<path id="Alura" class="st0" d="M655.8,397.5c0,74.9,0.6,149.9-0.3,224.8c-0.4,33.4-8.5,65.5-28.1,93.4
	c-18.3,26.1-43.9,43.3-72.4,56.7c-35,16.3-71.8,24.1-110.2,26.3c-43.1,2.4-86,2.3-128.6-5.5c-31.2-5.7-60.7-16-88.1-32.3
	c-42-25-67.4-61.1-74.9-109.7c-1.5-9.7-2.9-19.4-2.8-29.3c0.2-27.5-1.4-55.1,0.4-82.6c3.8-57.6,26.8-105.7,75.4-139.5
	c18.7-13.1,40.5-19.2,61.9-26.3c60.9-20.3,121.6-41.2,181.7-63.8c28-10.5,50-29.1,56.9-59.6c5.3-23.5,5.3-47.9-0.9-71.4
	c-7.2-27.8-26.7-44.6-52.6-55.2c-29.1-11.9-59.5-12.7-90.2-11.4c-15.3,0.6-30.4,2.6-45.2,7C304,129.1,285.7,153.2,277,186
	c-1.4,5.5-2.1,11.1-2.8,16.8c-1.2,9.3-4.1,12.3-13.5,12.4c-25.3,0.1-50.7,0.1-76,0.1c-8.7,0-17.5,0-26.2-0.2
	c-8.2-0.2-12.1-3.1-12.4-11.2c-2-47.1,4.1-92.2,36.4-129.7c22.1-25.6,50.1-42.5,81.5-54.2C290.4,10,318.3,7,346,3.8
	c28.2-3.3,56.7-4,85.1-2.6c46.1,2.2,91.5,8.7,133.1,30.3c46.5,24.2,77,61.6,88.6,113.2c3.2,14.3,3.3,29,3.2,43.7
	c-0.3,48.9-0.2,97.9-0.3,146.8C655.8,356,655.8,376.7,655.8,397.5C655.8,397.5,655.8,397.5,655.8,397.5z M530.6,459.4
	c0-17,0-34.1,0-51.1c0-1.7,0.5-3.8-1.5-4.6c-1.4-0.6-2.4,0.8-3.1,1.9c-8.9,13.4-22.8,19.3-37.1,24.3
	c-35.6,12.4-71.4,24.5-107.1,36.9c-17.9,6.2-36.2,11.4-52.9,20.9c-27.5,15.6-46.4,37.9-52.4,69.2c-4.4,23.2-2.6,46.6,4.2,69.3
	c8.3,27.9,25.6,47.1,54.1,55.6c14.7,4.4,29.7,6.8,45,7.9c28.9,2,57.6,1.1,85.8-6.2c27.8-7.3,47.6-23.8,57.5-51.4
	c5.8-16.2,8.3-33,8.8-50.1C532.8,541,530.4,500.2,530.6,459.4z"/>
</svg>
