<?xml version="1.0" encoding="utf-8"?>
<!-- Generator: Adobe Illustrator 27.2.0, SVG Export Plug-In . SVG Version: 6.00 Build 0)  -->
<svg version="1.1" id="Layer_1" xmlns="http://www.w3.org/2000/svg" xmlns:xlink="http://www.w3.org/1999/xlink" x="0px" y="0px"
	 viewBox="0 0 250 33" style="enable-background:new 0 0 250 33;" xml:space="preserve">
<style type="text/css">
	.st0{fill-rule:evenodd;clip-rule:evenodd;fill:#FFFFFF;}
	.st1{fill:none;stroke:#FFFFFF;stroke-width:2;}
</style>
<path class="st0" d="M201.4,0h-3.2v0c-0.2,0-0.3,0.1-0.3,0.3v31.2c0,0.2,0.1,0.3,0.3,0.3h3.2c0.2,0,0.3-0.1,0.3-0.3V0.3
	C201.7,0.1,201.5,0,201.4,0L201.4,0z M242.4,8.3c2.6,0,4.5,0.5,5.8,1.5c1.2,1,1.8,2.3,1.8,3.8v12.9c0,0.5-0.1,1.1-0.3,1.7
	c-0.2,0.6-0.6,1.2-1.1,1.7c-0.6,0.5-1.3,1-2.3,1.3c-1,0.3-2.3,0.5-3.9,0.5c-1.6,0-2.9-0.2-3.9-0.5c-1-0.3-1.8-0.8-2.3-1.3
	c-0.5-0.5-0.9-1.1-1.1-1.7c-0.2-0.6-0.3-1.2-0.3-1.7v-2.1c0-1.1,0.3-2.1,0.9-3c0.6-0.9,1.4-1.5,2.5-1.9c0.3-0.1,0.5-0.2,0.8-0.3h0
	c0.6-0.2,1.2-0.4,1.8-0.6c0.4-0.1,0.8-0.3,1.2-0.4c0.6-0.2,1.2-0.4,1.7-0.6c0.3-0.1,0.6-0.2,0.9-0.3l0.5-0.2
	c0.2-0.1,0.4-0.3,0.6-0.5c0.2-0.2,0.4-0.5,0.5-0.7c0.1-0.3,0.2-0.6,0.2-0.9v-0.8c0-0.3-0.1-0.6-0.2-0.9c-0.1-0.3-0.3-0.6-0.6-0.9
	c-0.3-0.3-0.7-0.5-1.2-0.6c-0.5-0.2-1.1-0.2-1.8-0.2c-1.5,0-2.5,0.3-3,0.9c-0.5,0.5-0.7,1.2-0.8,1.9c0,0.2-0.1,0.3-0.3,0.3h-3.2
	c-0.2,0-0.3-0.1-0.3-0.3v-0.8c0-0.7,0.1-1.4,0.4-2.1c0.3-0.7,0.7-1.2,1.4-1.7c0.6-0.5,1.4-0.9,2.4-1.1C239.9,8.4,241,8.3,242.4,8.3
	L242.4,8.3z M187.1,8.3c2.6,0,4.5,0.5,5.8,1.5c1.2,1,1.8,2.3,1.8,3.8v12.9c0,0.5-0.1,1.1-0.3,1.7c-0.2,0.6-0.6,1.2-1.1,1.7
	c-0.6,0.5-1.3,1-2.3,1.3c-1,0.3-2.3,0.5-3.9,0.5c-1.6,0-2.9-0.2-3.9-0.5c-1-0.3-1.8-0.8-2.3-1.3c-0.5-0.5-0.9-1.1-1.1-1.7
	c-0.2-0.6-0.3-1.2-0.3-1.7v-2.1c0-1.1,0.3-2.1,0.9-3c0.6-0.9,1.4-1.5,2.5-1.9c0.3-0.1,0.5-0.2,0.8-0.3h0c0.3-0.1,0.7-0.2,1-0.3
	c0.3-0.1,0.5-0.2,0.8-0.3c0.4-0.1,0.8-0.3,1.2-0.4c0.6-0.2,1.1-0.4,1.7-0.6c0.3-0.1,0.6-0.2,0.9-0.3l0.5-0.2
	c0.2-0.1,0.4-0.3,0.6-0.5c0.2-0.2,0.4-0.5,0.5-0.7c0.1-0.3,0.2-0.6,0.2-0.9v-0.8c0-0.3-0.1-0.6-0.2-0.9c-0.1-0.3-0.3-0.6-0.6-0.9
	c-0.3-0.3-0.7-0.5-1.2-0.6c-0.5-0.2-1.1-0.2-1.8-0.2c-1.5,0-2.5,0.3-3,0.9c-0.5,0.5-0.7,1.2-0.8,1.9c0,0.2-0.1,0.3-0.3,0.3l-3.3,0.1
	c-0.2,0-0.3-0.1-0.3-0.3v-0.8c0-0.7,0.1-1.4,0.4-2.1c0.3-0.7,0.8-1.2,1.4-1.7c0.6-0.5,1.4-0.9,2.4-1.1
	C184.6,8.4,185.8,8.3,187.1,8.3L187.1,8.3L187.1,8.3z M191,19.9L191,19.9L191,19.9L191,19.9z M191,19.9v5.3c0,1-0.3,1.9-0.8,2.4
	c-0.5,0.6-1.6,0.9-3.1,0.9c-1.5,0-2.5-0.3-3-0.8c-0.5-0.5-0.8-1.4-0.8-2.5c0-0.5,0.1-1,0.4-1.4c0.2-0.3,0.5-0.6,0.7-0.9
	c0.3-0.2,0.7-0.4,1-0.6c0.3-0.1,0.7-0.2,1-0.3c0.2-0.1,0.3-0.1,0.5-0.2c0.3-0.1,0.5-0.2,0.9-0.3v0h0c0.2-0.1,0.4-0.1,0.6-0.2
	c0.3-0.1,0.7-0.2,1-0.3l0.5-0.2c0.2-0.1,0.4-0.2,0.7-0.3C190.7,20.4,190.9,20.2,191,19.9L191,19.9z M246.2,19.9L246.2,19.9
	L246.2,19.9L246.2,19.9z M246.2,19.9c0,0.3-0.2,0.5-0.5,0.6c-0.2,0.2-0.5,0.2-0.7,0.3h0c-0.2,0.1-0.3,0.1-0.5,0.2
	c-0.3,0.1-0.6,0.2-0.9,0.3c-0.2,0.1-0.4,0.1-0.6,0.2h0c-0.3,0.1-0.6,0.2-0.9,0.3c-0.2,0.1-0.3,0.1-0.5,0.2c-0.4,0.1-0.7,0.2-1,0.4
	c-0.4,0.2-0.7,0.4-1,0.6c-0.3,0.3-0.5,0.6-0.7,0.9c-0.2,0.4-0.3,0.8-0.3,1.4c0,1.1,0.3,1.9,0.8,2.5c0.5,0.5,1.5,0.8,3,0.8
	c1.5,0,2.5-0.3,3.1-0.9c0.5-0.6,0.8-1.4,0.8-2.4L246.2,19.9L246.2,19.9z M233,8.4h-2.1v0c-1.8,0-3.2,0.2-4.2,0.6
	c-1,0.4-1.8,0.9-2.3,1.5c-0.5,0.6-0.8,1.2-0.9,1.8c-0.1,0.6-0.2,1.1-0.2,1.4v17.6c0,0.2,0.1,0.3,0.3,0.3h3.2c0.2,0,0.3-0.1,0.3-0.3
	V14.5c0-0.3,0-0.6,0.1-0.9c0.1-0.3,0.2-0.6,0.5-0.9c0.3-0.3,0.7-0.5,1.1-0.7c0.5-0.2,1.1-0.3,2-0.3h1.5c0.1,0,0.2-0.1,0.3-0.2
	l0.7-2.7C233.4,8.6,233.3,8.5,233,8.4C233.1,8.4,233.1,8.4,233,8.4L233,8.4z M220.1,26v0.8c0,0.3-0.1,0.8-0.2,1.4
	c-0.1,0.6-0.4,1.2-0.9,1.8c-0.5,0.6-1.3,1.1-2.3,1.5c-1,0.4-2.4,0.6-4.2,0.6c-1.8,0-3.2-0.2-4.2-0.6c-1-0.4-1.8-0.9-2.3-1.5
	c-0.5-0.6-0.8-1.2-0.9-1.8l0-0.1c-0.1-0.6-0.2-1-0.2-1.3V9.1c0-0.2,0.1-0.3,0.3-0.3h3.2c0.2,0,0.3,0.1,0.3,0.3v16.5
	c0,0.5,0.1,0.9,0.2,1.3c0.1,0.3,0.2,0.6,0.5,0.9c0.2,0.3,0.6,0.5,1.1,0.7c0.5,0.2,1.2,0.3,2,0.3c0.9,0,1.6-0.1,2.1-0.3
	c0.5-0.2,0.9-0.4,1.1-0.7c0.3-0.3,0.5-0.5,0.5-0.9l0-0.1c0.1-0.3,0.2-0.5,0.2-1.2V9.1c0-0.2,0.1-0.3,0.3-0.3h3.2
	c0.2,0,0.3,0.1,0.3,0.3L220.1,26L220.1,26L220.1,26L220.1,26z M60.9,23.8h9.3l-4.9-7.9l-9,14.3l-4.1,0l11-17.2
	c0.5-0.7,1.3-1.1,2.2-1.1c0.9,0,1.7,0.4,2.1,1.1l11,17.2l-4.1,0L72.4,27h-9.4C62.9,27,60.9,23.8,60.9,23.8z M103.6,27V12.1h-3.5
	v16.4c0,0.5,0.2,0.9,0.5,1.2c0.3,0.3,0.8,0.5,1.3,0.5h15.9l2.1-3.2L103.6,27L103.6,27z M45.9,24.3c3.4,0,6.1-2.7,6.1-6.1
	c0-3.4-2.8-6.1-6.1-6.1H30.6v18.1h3.5V15.3h11.6c1.6,0,3,1.3,3,2.9c0,1.6-1.3,3-2.9,3c0,0-0.1,0-0.1,0l-9.8,0l10.4,9.1h5.1l-7-5.9
	L45.9,24.3L45.9,24.3z M9.1,30.2c-5,0-9.1-4.1-9.1-9.1c0-5,4.1-9.1,9.1-9.1h10.6c5,0,9.1,4.1,9.1,9.1c0,5-4.1,9.1-9.1,9.1L9.1,30.2
	L9.1,30.2z M19.4,27c3.2,0,5.9-2.6,5.9-5.9c0,0,0,0,0,0c0-3.2-2.6-5.9-5.9-5.9l-10.1,0c-3.2,0-5.9,2.6-5.9,5.9c0,0,0,0,0,0
	c0,3.2,2.6,5.9,5.9,5.9c0,0,0,0,0,0H19.4z M85.7,30.2c-5,0-9.1-4.1-9.1-9.1c0-5,4.1-9.1,9.1-9.1h12.5l-2.1,3.2l-10.3,0
	c-3.2,0-5.9,2.6-5.9,5.9c0,0,0,0,0,0c0,3.2,2.6,5.9,5.9,5.9c0,0,0,0,0,0h12.6l-2.1,3.2H85.7z M128.4,27c-2.6,0-4.9-1.7-5.7-4.3h14.9
	l2.1-3.2l-17,0c0.7-2.5,3-4.3,5.7-4.3h10.2l2.1-3.2h-12.5c-5,0-9.1,4.1-9.1,9.1c0,5,4.1,9.1,9.1,9.1H139L141,27H128.4L128.4,27z"/>
<path class="st1" d="M160.3,14.7v12.8 M153.8,21h12.8"/>
</svg>
