<?xml version="1.0" encoding="utf-8"?>
<!-- Generator: Adobe Illustrator 27.2.0, SVG Export Plug-In . SVG Version: 6.00 Build 0)  -->
<svg version="1.1" id="Layer_1" xmlns="http://www.w3.org/2000/svg" xmlns:xlink="http://www.w3.org/1999/xlink" x="0px" y="0px"
	 viewBox="0 0 116 60" style="enable-background:new 0 0 116 60;" xml:space="preserve">
<style type="text/css">
	.st0{fill:#FFFFFF;}
	.st1{fill:#81A378;}
	.st2{fill:#82B1B4;}
	.st3{fill:#DA8A40;}
</style>
<path class="st0" d="M59.1,25.6c-3.3,0-5.8-1-7.5-3s-2.7-4.8-2.7-8.5c0-3.7,0.9-6.6,2.7-8.6c1.8-2,4.3-3,7.5-3c3.2,0,5.7,1,7.5,3
	c1.8,2,2.7,4.8,2.7,8.5c0,3.7-0.9,6.5-2.7,8.5S62.3,25.6,59.1,25.6z M59.1,22.3c4.2,0,6.3-2.8,6.3-8.3c0-2.7-0.6-4.8-1.6-6.2
	c-1-1.4-2.7-2.1-4.7-2.1s-3.7,0.7-4.7,2.1c-1,1.4-1.6,3.5-1.6,6.2C52.8,19.6,54.9,22.3,59.1,22.3L59.1,22.3z M73.1,25.2V2.9h3.6
	l10.7,16v-16h3.8v22.3h-3.6l-10.7-16v16H73.1z M95.9,25.2V2.9H110v3.3H99.7v6.1h9.4v3.2h-9.4V22h10.6v3.2L95.9,25.2L95.9,25.2z
	 M54.4,44.8c-1.3,0-2.3-0.4-3-1.2c-0.7-0.8-1-2-1-3.5c0-1.5,0.3-2.7,1-3.5s1.8-1.2,3-1.2s2.3,0.4,3,1.2s1,2,1,3.5s-0.3,2.7-1,3.5
	C56.7,44.4,55.7,44.8,54.4,44.8L54.4,44.8z M54.4,43.7c1,0,1.7-0.3,2.2-1s0.8-1.5,0.8-2.8s-0.2-2.2-0.8-2.8c-0.5-0.7-1.2-1-2.2-1
	c-2,0-2.9,1.2-2.9,3.8c0,1.2,0.2,2.2,0.8,2.8C52.7,43.4,53.4,43.7,54.4,43.7L54.4,43.7z M60.1,44.6V38h0.8l0.2,1.2
	c0.5-0.8,1-1.2,1.8-1.2c0.2,0,0.3,0,0.5,0v1h-0.3c-0.5,0-0.9,0.2-1.2,0.4s-0.5,0.7-0.7,1.2v4C61.3,44.6,60.1,44.6,60.1,44.6z
	 M68.7,44.6l-0.2-1c-0.6,0.8-1.3,1.2-2.2,1.2c-0.7,0-1.2-0.2-1.6-0.5c-0.4-0.4-0.6-0.9-0.6-1.5c0-0.7,0.2-1.2,0.7-1.6
	c0.5-0.4,1.2-0.6,2-0.6h1.6v-0.4c0-0.5-0.1-0.8-0.3-1c-0.2-0.2-0.6-0.3-1.1-0.3c-0.3,0-0.7,0-1.1,0.1c-0.3,0-0.8,0.2-1.2,0.3v-1
	c0.3-0.2,0.7-0.2,1.1-0.3c0.4-0.1,0.8-0.1,1.2-0.1c1.7,0,2.5,0.8,2.5,2.2v4.5L68.7,44.6C68.7,44.7,68.7,44.6,68.7,44.6z M66.3,43.9
	c0.4,0,0.8-0.1,1.1-0.3s0.6-0.5,0.8-0.9v-1.2h-1.4c-0.6,0-1,0.1-1.3,0.3s-0.4,0.5-0.4,1s0.1,0.7,0.3,0.9
	C65.7,43.7,66,43.9,66.3,43.9z M76,43.4v1c-0.6,0.3-1.2,0.5-2,0.5c-1.1,0-1.8-0.3-2.3-0.9c-0.5-0.6-0.8-1.5-0.8-2.7
	c0-1.1,0.3-1.9,0.8-2.5c0.6-0.6,1.3-0.9,2.3-0.9c0.7,0,1.2,0.2,1.8,0.4v1c-0.6-0.3-1.1-0.4-1.6-0.4c-1.4,0-2.2,0.8-2.2,2.5
	c0,0.9,0.2,1.5,0.5,2s0.8,0.7,1.6,0.7c0.3,0,0.6,0,0.9-0.1C75.3,43.6,75.6,43.5,76,43.4L76,43.4z M77.3,44.6V36l-0.7-0.4v-0.4h1.8
	v9.5L77.3,44.6C77.3,44.7,77.3,44.6,77.3,44.6z M85.4,44.3c-0.2,0.2-0.6,0.2-0.9,0.3c-0.4,0.1-0.8,0.2-1.3,0.2c-1,0-1.8-0.3-2.4-0.9
	c-0.6-0.6-0.8-1.5-0.8-2.7c0-1.1,0.2-2,0.8-2.5c0.5-0.6,1.2-0.8,2.2-0.8c1.8,0,2.8,1,2.8,3v0.8h-4.6c0.1,0.8,0.2,1.3,0.6,1.7
	c0.3,0.3,0.8,0.5,1.6,0.5c0.4,0,0.8,0,1.1-0.1c0.3-0.1,0.7-0.2,1.1-0.3L85.4,44.3L85.4,44.3z M82.9,38.8c-0.6,0-1,0.2-1.3,0.5
	s-0.5,0.8-0.5,1.5h3.5c0-0.7-0.2-1.2-0.4-1.5S83.5,38.8,82.9,38.8L82.9,38.8z M90.3,44.6v-9.2h1.1l4.9,7.3v-7.3h1.2v9.2h-1.1
	l-4.9-7.3v7.3H90.3L90.3,44.6z M104.6,44.3c-0.2,0.2-0.6,0.2-0.9,0.3c-0.4,0.1-0.8,0.2-1.3,0.2c-1,0-1.8-0.3-2.4-0.9
	c-0.6-0.6-0.8-1.5-0.8-2.7c0-1.1,0.2-2,0.8-2.5c0.5-0.6,1.3-0.8,2.2-0.8c1.8,0,2.8,1,2.8,3v0.8h-4.6c0.1,0.8,0.2,1.3,0.6,1.7
	c0.3,0.3,0.8,0.5,1.5,0.5c0.4,0,0.8,0,1.1-0.1c0.3-0.1,0.7-0.2,1.1-0.3V44.3L104.6,44.3z M102.1,38.8c-0.6,0-1,0.2-1.3,0.5
	s-0.5,0.8-0.5,1.5h3.5c0-0.7-0.2-1.2-0.4-1.5S102.7,38.8,102.1,38.8z M105.5,44.6l2.4-3.4l-2.3-3.2h1.3l1.7,2.5l1.8-2.5h1.2
	l-2.3,3.2l2.4,3.5h-1.3l-1.8-2.8l-1.9,2.8L105.5,44.6L105.5,44.6L105.5,44.6z M113.2,42.6v-3.7h-1.2v-0.6l1.2-0.4l0.4-1.8h0.7V38
	h1.4v1h-1.4v3.7c0,0.7,0.3,1.1,0.9,1.1h0.3c0.1,0,0.2,0,0.2,0v1c-0.1,0-0.2,0-0.3,0h-0.4c-0.7,0-1.2-0.2-1.4-0.5
	C113.4,43.8,113.2,43.3,113.2,42.6z M50.6,59.4v-9.2h5.7v1h-4.5v3H56v1h-4.2v3.1h4.7v1L50.6,59.4L50.6,59.4L50.6,59.4z M62.8,59.4
	l-0.2-1c-0.2,0.4-0.6,0.7-1,0.9c-0.4,0.2-0.8,0.3-1.3,0.3c-0.8,0-1.5-0.3-2-0.9c-0.5-0.6-0.8-1.5-0.8-2.5s0.2-2,0.8-2.5
	s1.2-0.9,2.1-0.9c0.3,0,0.8,0,1.1,0.2s0.7,0.3,1,0.6v-3.6h1.2v9.5H62.8z M58.7,56.1c0,0.8,0.2,1.5,0.5,1.8c0.3,0.5,0.8,0.7,1.3,0.7
	c0.4,0,0.8-0.1,1.1-0.3s0.6-0.5,0.8-0.9v-3c-0.5-0.6-1.2-0.9-1.8-0.9c-0.6,0-1,0.2-1.4,0.7C58.9,54.6,58.7,55.2,58.7,56.1z
	 M65.4,56.8v-4.1h1.2v4c0,0.5,0.1,1,0.3,1.3s0.6,0.5,1.1,0.5c0.4,0,0.8-0.2,1.2-0.4c0.3-0.3,0.6-0.7,0.8-1.1v-4.3h1.2v6.7h-0.8
	l-0.2-1.2c-0.2,0.4-0.6,0.7-1,1s-0.8,0.3-1.3,0.3c-0.8,0-1.3-0.2-1.7-0.7C65.6,58.4,65.4,57.7,65.4,56.8z M77.6,58.1v1
	c-0.6,0.3-1.2,0.5-2,0.5c-1.1,0-1.8-0.3-2.3-0.9c-0.5-0.6-0.8-1.5-0.8-2.7c0-1.1,0.3-1.9,0.8-2.5c0.6-0.6,1.3-0.9,2.3-0.9
	c0.7,0,1.2,0.2,1.8,0.4v1c-0.6-0.3-1.1-0.4-1.6-0.4c-1.4,0-2.2,0.8-2.2,2.5c0,0.9,0.2,1.5,0.5,2s0.8,0.7,1.6,0.7
	c0.3,0,0.6,0,0.9-0.1C77,58.4,77.3,58.3,77.6,58.1L77.6,58.1z M83.1,59.4l-0.2-1c-0.6,0.8-1.3,1.2-2.2,1.2c-0.7,0-1.2-0.2-1.6-0.5
	c-0.4-0.4-0.6-0.9-0.6-1.5c0-0.7,0.2-1.2,0.7-1.6c0.5-0.4,1.2-0.6,2-0.6h1.6v-0.4c0-0.5-0.1-0.8-0.3-1c-0.2-0.2-0.6-0.3-1.1-0.3
	c-0.3,0-0.7,0-1.1,0.1c-0.3,0-0.8,0.2-1.2,0.3v-0.9c0.3-0.2,0.7-0.2,1.1-0.3s0.8-0.1,1.2-0.1c1.7,0,2.5,0.8,2.5,2.2v4.5L83.1,59.4
	L83.1,59.4L83.1,59.4z M80.9,58.6c0.4,0,0.8-0.1,1.1-0.3s0.6-0.5,0.8-0.9v-1.2h-1.4c-0.6,0-1,0.1-1.3,0.3s-0.4,0.5-0.4,1
	s0.1,0.7,0.3,0.9C80.2,58.5,80.5,58.6,80.9,58.6z M86,57.4v-3.7h-1.2v-0.6l1.2-0.4l0.4-1.8h0.7v1.8h1.4v1h-1.5v3.7
	c0,0.7,0.3,1.1,0.9,1.1h0.3c0.1,0,0.2,0,0.2,0v1c-0.1,0-0.2,0-0.3,0h-0.4c-0.7,0-1.2-0.2-1.4-0.5C86.1,58.6,86,58.1,86,57.4z
	 M90.3,59.4v-5.7l-0.7-0.4v-0.5h1.8v6.7L90.3,59.4L90.3,59.4L90.3,59.4z M90,51.2v-1h1.4v1L90,51.2L90,51.2z M96.1,59.5
	c-1,0-1.8-0.3-2.3-0.9c-0.6-0.6-0.8-1.5-0.8-2.5s0.3-2,0.8-2.5c0.6-0.6,1.3-0.9,2.3-0.9s1.8,0.3,2.3,0.9c0.6,0.6,0.8,1.5,0.8,2.5
	S99,58,98.4,58.6C97.9,59.2,97.1,59.5,96.1,59.5L96.1,59.5z M96.1,58.6c0.7,0,1.2-0.2,1.5-0.7s0.5-1,0.5-1.9c0-0.8-0.2-1.5-0.5-1.9
	s-0.8-0.7-1.5-0.7s-1.2,0.2-1.5,0.7s-0.5,1-0.5,1.9c0,0.8,0.2,1.5,0.5,1.9S95.4,58.6,96.1,58.6z M100.7,59.4v-6.6h0.8l0.2,1.2
	c0.3-0.4,0.6-0.7,1.1-1c0.4-0.2,0.8-0.3,1.4-0.3c0.8,0,1.3,0.2,1.8,0.7s0.6,1.1,0.6,2v4.1h-1.2v-4c0-1.2-0.5-1.8-1.5-1.8
	c-0.4,0-0.8,0.2-1.2,0.4s-0.6,0.6-0.8,1v4.3L100.7,59.4L100.7,59.4z"/>
<path class="st1" d="M27.9,37.1c-6,0.8-27.6-0.5-27.6-0.5l1.5-9c0-0.1,0.1-0.2,0.2-0.2c0.7-0.1,3.7-0.8,11.6-0.8
	c7.8,0,17.1,0.5,20.1,0.8c0.5,0,1,0.2,1,0.8v3C34.6,34.4,35.2,36.1,27.9,37.1z"/>
<path class="st2" d="M35.1,23.7c0,0.1-0.2,0.1-0.3,0.1c-1.1,0.2-7.3,1.2-13.6,0.6c-5.5-0.5-9.4-0.6-10.7-0.6c-0.2,0-0.4-0.2-0.4-0.5
	l0.4-5.9c0.1-2,3.2-3.5,5.2-3.6L36,13c0.2,0,0.4,0.1,0.5,0.3c0.2,0.6,0.6,1.8,0.7,4.1C37.2,20.9,35.6,23.2,35.1,23.7z"/>
<path class="st3" d="M35.9,10.5l-14.3,0.8c-1.5,0.1-2.9-1.5-2.6-3.3l1-7.1h14.8C37.2,0.9,35.9,10.5,35.9,10.5z"/>
</svg>
